<?xml version="1.0" encoding="utf-8"?>
<!-- Generator: Adobe Illustrator 19.2.1, SVG Export Plug-In . SVG Version: 6.00 Build 0)  -->
<svg version="1.1" id="Layer_1" xmlns="http://www.w3.org/2000/svg" xmlns:xlink="http://www.w3.org/1999/xlink" x="0px" y="0px"
	 viewBox="0 0 224.9 45.5" style="enable-background:new 0 0 224.9 45.5;" xml:space="preserve">
<style type="text/css">
	.st0{fill:none;}
	.st1{fill:#41D6C3;}
</style>
<g>
	<polygon class="st0" points="49.2,18.3 49.2,18.3 48,25.5 50.3,25.5 	"/>
	<polygon class="st0" points="158.4,18.3 158.3,18.3 157.2,25.5 159.5,25.5 	"/>
	<path class="st0" d="M194.8,20.7v-1.4c0-1-0.4-1.5-1.2-1.5h-1.1v4.4h0.9C194.2,22.2,194.8,21.8,194.8,20.7z"/>
	<path class="st1" d="M8,7.3v31h209.7v-31H8z M216.7,37.3H9v-29h207.7V37.3z"/>
</g>
<g>
	<path class="st1" d="M24,24.7v1.9c0,2.2-1.3,3.5-3.7,3.5c-2.4,0-3.7-1.3-3.7-3.5v-7.3c0-2.2,1.3-3.5,3.7-3.5c2.4,0,3.7,1.3,3.7,3.5
		v1.4h-2.3v-1.5c0-1-0.5-1.4-1.3-1.4c-0.8,0-1.3,0.4-1.3,1.4v7.6c0,1,0.5,1.4,1.3,1.4c0.8,0,1.3-0.4,1.3-1.4v-2H24z"/>
	<path class="st1" d="M26.8,19.3c0-2.2,1.3-3.5,3.8-3.5s3.8,1.3,3.8,3.5v7.3c0,2.2-1.3,3.5-3.8,3.5s-3.8-1.3-3.8-3.5V19.3z
		 M29.2,26.7c0,1,0.5,1.4,1.3,1.4c0.8,0,1.3-0.4,1.3-1.4v-7.6c0-1-0.5-1.4-1.3-1.4c-0.8,0-1.3,0.4-1.3,1.4V26.7z"/>
	<path class="st1" d="M39.6,19.8L39.6,19.8l0,10.1h-2.2V16h3.1l2.5,8.4h0V16h2.2v14h-2.5L39.6,19.8z"/>
	<path class="st1" d="M52.2,27.4L52.2,27.4L54.1,16h2.3L54,30h-3.7l-2.4-14h2.5L52.2,27.4z"/>
	<path class="st1" d="M61.5,21.9h3.4v2h-3.4V28h4.3v2H59V16h6.8v2h-4.3V21.9z"/>
	<path class="st1" d="M74,30c-0.1-0.4-0.2-0.6-0.2-1.7V26c0-1.3-0.5-1.8-1.6-1.8h-0.9V30h-2.5V16h3.7c2.6,0,3.7,1.1,3.7,3.2v1.1
		c0,1.4-0.5,2.4-1.6,2.8v0c1.2,0.5,1.6,1.5,1.6,3v2.2c0,0.7,0,1.2,0.3,1.7H74z M71.3,18v4.3h1c0.9,0,1.5-0.4,1.5-1.5v-1.4
		c0-1-0.4-1.4-1.3-1.4H71.3z"/>
	<path class="st1" d="M82.7,15.8c2.4,0,3.7,1.3,3.7,3.5v0.4H84v-0.6c0-1-0.5-1.4-1.2-1.4c-0.8,0-1.2,0.4-1.2,1.4c0,1,0.5,1.8,2.1,3
		c2.1,1.6,2.7,2.8,2.7,4.4c0,2.2-1.3,3.5-3.7,3.5S79,28.8,79,26.6v-0.9h2.3v1c0,1,0.5,1.4,1.3,1.4c0.8,0,1.3-0.4,1.3-1.4
		c0-1-0.5-1.8-2.1-3c-2.1-1.6-2.7-2.8-2.7-4.4C79,17.1,80.3,15.8,82.7,15.8z"/>
	<path class="st1" d="M97.3,30h-2.5l-0.4-2.5h-3L90.9,30h-2.3l2.5-14h3.6L97.3,30z M91.6,25.5H94l-1.2-7.1h0L91.6,25.5z"/>
	<path class="st1" d="M98.3,16h7.7v2h-2.6v12h-2.5V18h-2.6V16z"/>
	<path class="st1" d="M108.6,16h2.5v14h-2.5V16z"/>
	<path class="st1" d="M114.1,19.3c0-2.2,1.3-3.5,3.8-3.5c2.4,0,3.8,1.3,3.8,3.5v7.3c0,2.2-1.3,3.5-3.8,3.5c-2.4,0-3.8-1.3-3.8-3.5
		V19.3z M116.6,26.7c0,1,0.5,1.4,1.3,1.4c0.8,0,1.3-0.4,1.3-1.4v-7.6c0-1-0.5-1.4-1.3-1.4c-0.8,0-1.3,0.4-1.3,1.4V26.7z"/>
	<path class="st1" d="M127,19.8L127,19.8l0,10.1h-2.2V16h3.1l2.5,8.4h0V16h2.2v14H130L127,19.8z"/>
	<path class="st1" d="M143.9,30h-2.5l-0.4-2.5h-3l-0.4,2.5h-2.3l2.5-14h3.6L143.9,30z M138.2,25.5h2.4l-1.2-7.1h0L138.2,25.5z"/>
	<path class="st1" d="M146.5,16h2.5v12h4.1v2h-6.6V16z"/>
	<path class="st1" d="M168.7,30h-2.5l-0.4-2.5h-3l-0.4,2.5H160l2.5-14h3.6L168.7,30z M163,25.5h2.4l-1.2-7.1h0L163,25.5z"/>
	<path class="st1" d="M175,22.2h3.5v4.4c0,2.2-1.3,3.5-3.7,3.5c-2.4,0-3.7-1.3-3.7-3.5v-7.3c0-2.2,1.3-3.5,3.7-3.5
		c2.4,0,3.7,1.3,3.7,3.5v1.4h-2.3v-1.5c0-1-0.5-1.4-1.3-1.4c-0.8,0-1.3,0.4-1.3,1.4v7.6c0,1,0.5,1.4,1.3,1.4c0.8,0,1.3-0.4,1.3-1.4
		v-2.6H175V22.2z"/>
	<path class="st1" d="M184,21.9h3.4v2H184V28h4.3v2h-6.8V16h6.8v2H184V21.9z"/>
	<path class="st1" d="M193.6,19.8L193.6,19.8l0,10.1h-2.2V16h3.1l2.5,8.4h0V16h2.2v14h-2.5L193.6,19.8z"/>
	<path class="st1" d="M201.7,16h7.7v2h-2.6v12h-2.5V18h-2.6V16z"/>
</g>
</svg>
