<?xml version="1.0" encoding="utf-8"?>
<!-- Generator: Adobe Illustrator 19.2.1, SVG Export Plug-In . SVG Version: 6.00 Build 0)  -->
<svg version="1.1" id="Layer_1" xmlns="http://www.w3.org/2000/svg" xmlns:xlink="http://www.w3.org/1999/xlink" x="0px" y="0px"
	 viewBox="0 0 251.9 54.7" style="enable-background:new 0 0 251.9 54.7;" xml:space="preserve">
<style type="text/css">
	.st0{fill:none;}
	.st1{fill:#41D6C3;}
</style>
<g>
	<polygon class="st0" points="177.4,22.2 177.4,22.2 176.1,30.7 178.7,30.7 	"/>
	<polygon class="st0" points="55.1,22.2 55,22.2 53.8,30.7 56.3,30.7 	"/>
	<path class="st0" d="M9.1,44.8h234.2V10.3H9.1V44.8z M226.5,31h2.5v1.2c0,1.2,0.5,1.6,1.4,1.6s1.4-0.4,1.4-1.6
		c0-1.2-0.5-2.1-2.3-3.7c-2.2-2-2.9-3.3-2.9-5.3c0-2.7,1.3-4.2,3.9-4.2c2.6,0,3.9,1.5,3.9,4.2v0.5h-2.5v-0.7c0-1.2-0.5-1.7-1.3-1.7
		s-1.3,0.5-1.3,1.7c0,1.2,0.5,2.1,2.3,3.7c2.2,2,2.9,3.4,2.9,5.3c0,2.7-1.4,4.2-4,4.2s-4-1.5-4-4.2L226.5,31L226.5,31z M212.9,19.2
		h4c2.7,0,3.9,1.3,3.9,3.9v1.3c0,1.7-0.6,2.8-1.7,3.4v0c1.3,0.6,1.8,1.8,1.8,3.6V34c0,0.8,0,1.4,0.3,2h-2.7
		c-0.1-0.4-0.2-0.7-0.2-2.1v-2.6c0-1.6-0.5-2.1-1.7-2.1h-0.9v6.9h-2.6L212.9,19.2L212.9,19.2z M199.7,19.2h7.2v2.4h-4.6v4.7h3.6v2.4
		h-3.6v4.9h4.6v2.4h-7.2V19.2z M186,19.2h8.2v2.4h-2.8v14.5h-2.6V21.6H186L186,19.2L186,19.2z M175.6,19.2h3.9l2.7,16.9h-2.7L179,33
		h-3.3l-0.5,3.1h-2.4L175.6,19.2z M160.4,19.2h7.2v2.4H163v4.7h3.6v2.4H163v4.9h4.6v2.4h-7.2V19.2z M145.8,19.2h2.6v7.2h3v-7.2h2.7
		v16.9h-2.7v-7.2h-3v7.2h-2.6V19.2z M132.1,19.2h8.2v2.4h-2.8v14.5h-2.6V21.6h-2.8L132.1,19.2L132.1,19.2z M110.1,19.2h3.3l2.7,10.1
		h0V19.2h2.4v16.9h-2.7l-3.3-12.2h0v12.2h-2.4L110.1,19.2L110.1,19.2z M101.2,19.2h2.7v16.9h-2.7V19.2z M79.4,31h2.5v1.2
		c0,1.2,0.5,1.6,1.4,1.6c0.8,0,1.4-0.4,1.4-1.6c0-1.2-0.5-2.1-2.3-3.7c-2.2-2-2.9-3.3-2.9-5.3c0-2.7,1.3-4.2,3.9-4.2
		s3.9,1.5,3.9,4.2v0.5h-2.5v-0.7c0-1.2-0.5-1.7-1.3-1.7c-0.8,0-1.3,0.5-1.3,1.7c0,1.2,0.5,2.1,2.3,3.7c2.2,2,2.9,3.4,2.9,5.3
		c0,2.7-1.3,4.2-4,4.2c-2.6,0-4-1.5-4-4.2L79.4,31L79.4,31z M74.5,19.2h2.6v2.3l-1.2,2.7h-1.1l0.7-2.4h-1L74.5,19.2L74.5,19.2z
		 M63.7,19.2h8.2v2.4h-2.8v14.5h-2.7V21.6h-2.8L63.7,19.2L63.7,19.2z M53.3,19.2h3.9l2.7,16.9h-2.7L56.7,33h-3.3L53,36.1h-2.4
		L53.3,19.2z M36.6,19.2h2.7v7.2h3v-7.2H45v16.9h-2.7v-7.2h-3v7.2h-2.7C36.6,36.1,36.6,19.2,36.6,19.2z M20.7,19.2l1.4,13.3h0
		l1.3-13.3H26l1.3,13.4h0l1.3-13.4H31l-1.9,16.9h-3.5l-0.9-9h0l-0.9,9H20l-1.9-16.9H20.7z"/>
	<path class="st0" d="M218.2,25v-1.7c0-1.2-0.4-1.7-1.4-1.7h-1.3v5.2h1C217.6,26.8,218.2,26.4,218.2,25z"/>
	<path class="st1" d="M8.1,9.3v36.5h236.2V9.3H8.1z M243.3,44.8H9.1V10.3h234.2V44.8z"/>
</g>
<g>
	<path class="st1" d="M26.1,29.7V32c0,2.7-1.3,4.2-3.9,4.2c-2.6,0-3.9-1.5-3.9-4.2v-8.7c0-2.7,1.3-4.2,3.9-4.2
		c2.6,0,3.9,1.5,3.9,4.2v1.6h-2.5v-1.8c0-1.2-0.5-1.7-1.4-1.7c-0.8,0-1.4,0.5-1.4,1.7v9.1c0,1.2,0.5,1.6,1.4,1.6
		c0.8,0,1.4-0.4,1.4-1.6v-2.4H26.1z"/>
	<path class="st1" d="M29.7,23.2c0-2.7,1.4-4.2,4-4.2s4,1.5,4,4.2V32c0,2.7-1.4,4.2-4,4.2s-4-1.5-4-4.2V23.2z M32.3,32.1
		c0,1.2,0.5,1.7,1.4,1.7c0.8,0,1.4-0.5,1.4-1.7v-9.1c0-1.2-0.5-1.7-1.4-1.7c-0.8,0-1.4,0.5-1.4,1.7V32.1z"/>
	<path class="st1" d="M43.9,23.8L43.9,23.8l0,12.2h-2.4V19.2h3.3l2.7,10.1h0V19.2h2.4V36h-2.7L43.9,23.8z"/>
	<path class="st1" d="M57.9,32.9L57.9,32.9l2-13.7h2.4L59.8,36h-3.9l-2.6-16.8h2.7L57.9,32.9z"/>
	<path class="st1" d="M68.4,26.3H72v2.4h-3.6v4.9H73V36h-7.2V19.2H73v2.4h-4.6V26.3z"/>
	<path class="st1" d="M82.3,36c-0.1-0.4-0.2-0.7-0.2-2.1v-2.6c0-1.6-0.5-2.1-1.7-2.1h-0.9V36h-2.6V19.2h4c2.7,0,3.9,1.3,3.9,3.9v1.3
		c0,1.7-0.6,2.8-1.7,3.4v0c1.3,0.6,1.8,1.8,1.8,3.6V34c0,0.8,0,1.4,0.3,2H82.3z M79.4,21.6v5.2h1c1,0,1.6-0.4,1.6-1.8v-1.7
		c0-1.2-0.4-1.7-1.3-1.7H79.4z"/>
	<path class="st1" d="M92.1,19c2.6,0,3.9,1.5,3.9,4.2v0.5h-2.5v-0.7c0-1.2-0.5-1.7-1.3-1.7c-0.8,0-1.3,0.5-1.3,1.7
		c0,1.2,0.5,2.1,2.3,3.6C95.3,28.7,96,30,96,32c0,2.7-1.3,4.2-3.9,4.2s-3.9-1.5-3.9-4.2v-1h2.5v1.2c0,1.2,0.5,1.6,1.4,1.6
		c0.8,0,1.4-0.4,1.4-1.6c0-1.2-0.5-2.1-2.3-3.6c-2.2-1.9-2.9-3.3-2.9-5.3C88.2,20.5,89.5,19,92.1,19z"/>
	<path class="st1" d="M108.2,36h-2.7l-0.5-3h-3.2l-0.5,3H99l2.7-16.8h3.9L108.2,36z M102.2,30.7h2.5l-1.2-8.5h0L102.2,30.7z"/>
	<path class="st1" d="M109.9,19.2h8.2v2.4h-2.8V36h-2.6V21.6h-2.8V19.2z"/>
	<path class="st1" d="M121.4,19.2h2.6V36h-2.6V19.2z"/>
	<path class="st1" d="M127.9,23.2c0-2.7,1.4-4.2,4-4.2c2.6,0,4,1.5,4,4.2V32c0,2.7-1.4,4.2-4,4.2c-2.6,0-4-1.5-4-4.2V23.2z
		 M130.6,32.1c0,1.2,0.5,1.7,1.4,1.7c0.8,0,1.4-0.5,1.4-1.7v-9.1c0-1.2-0.5-1.7-1.4-1.7c-0.8,0-1.4,0.5-1.4,1.7V32.1z"/>
	<path class="st1" d="M142.2,23.8L142.2,23.8l0,12.2h-2.4V19.2h3.3l2.7,10.1h0V19.2h2.4V36h-2.7L142.2,23.8z"/>
	<path class="st1" d="M160.8,36h-2.7l-0.5-3h-3.2l-0.5,3h-2.4l2.7-16.8h3.9L160.8,36z M154.7,30.7h2.5l-1.2-8.5h0L154.7,30.7z"/>
	<path class="st1" d="M164.1,19.2h2.6v14.4h4.3V36h-7V19.2z"/>
	<path class="st1" d="M188.9,36h-2.7l-0.5-3h-3.2l-0.5,3h-2.4l2.7-16.8h3.9L188.9,36z M182.8,30.7h2.5l-1.2-8.5h0L182.8,30.7z"/>
	<path class="st1" d="M196.2,26.6h3.7V32c0,2.7-1.3,4.2-3.9,4.2c-2.6,0-3.9-1.5-3.9-4.2v-8.7c0-2.7,1.3-4.2,3.9-4.2
		c2.6,0,3.9,1.5,3.9,4.2v1.6h-2.5v-1.8c0-1.2-0.5-1.7-1.4-1.7c-0.8,0-1.4,0.5-1.4,1.7v9.1c0,1.2,0.5,1.6,1.4,1.6
		c0.8,0,1.4-0.4,1.4-1.6V29h-1.2V26.6z"/>
	<path class="st1" d="M206.4,26.3h3.6v2.4h-3.6v4.9h4.6V36h-7.2V19.2h7.2v2.4h-4.6V26.3z"/>
	<path class="st1" d="M217.1,23.8L217.1,23.8l0,12.2h-2.4V19.2h3.3l2.7,10.1h0V19.2h2.4V36h-2.7L217.1,23.8z"/>
	<path class="st1" d="M226.4,19.2h8.2v2.4h-2.8V36h-2.6V21.6h-2.8V19.2z"/>
</g>
</svg>
