<?xml version="1.0" encoding="utf-8"?>
<!-- Generator: Adobe Illustrator 19.2.1, SVG Export Plug-In . SVG Version: 6.00 Build 0)  -->
<!DOCTYPE svg PUBLIC "-//W3C//DTD SVG 1.1//EN" "http://www.w3.org/Graphics/SVG/1.1/DTD/svg11.dtd">
<svg version="1.1" id="Layer_1" xmlns="http://www.w3.org/2000/svg" xmlns:xlink="http://www.w3.org/1999/xlink" x="0px" y="0px"
	 viewBox="0 0 1478.7 154" enable-background="new 0 0 1478.7 154" xml:space="preserve">
<g>
	<path fill="#ECECEC" d="M44.6,2.9l21.2,105h0.4l21.5-105h44.4v148.8h-27.5V32.9h-0.4L77.7,151.7H54.4L27.9,32.9h-0.4v118.8H0V2.9
		H44.6z"/>
	<path fill="#ECECEC" d="M152,46.1c1-9.5,3.3-17.7,6.9-24.5c3.5-6.8,8.6-12.1,15.3-15.9C180.8,1.9,189.8,0,201,0s20.2,1.9,26.9,5.7
		c6.7,3.8,11.8,9.1,15.3,15.9c3.5,6.8,5.8,15,6.9,24.5c1,9.5,1.6,19.9,1.6,31.1c0,11.4-0.5,21.8-1.6,31.2c-1,9.4-3.3,17.6-6.9,24.4
		c-3.5,6.8-8.6,12-15.3,15.6c-6.7,3.6-15.6,5.4-26.9,5.4s-20.2-1.8-26.9-5.4c-6.7-3.6-11.8-8.8-15.3-15.6
		c-3.5-6.8-5.8-14.9-6.9-24.4c-1-9.4-1.6-19.9-1.6-31.2C150.4,66,150.9,55.7,152,46.1z M181.1,102.8c0.5,7,1.5,12.7,2.9,17.1
		s3.5,7.6,6.2,9.6c2.7,2,6.3,3,10.7,3c4.4,0,8-1,10.7-3c2.7-2,4.8-5.2,6.2-9.6c1.5-4.4,2.4-10.1,2.9-17.1c0.5-7,0.7-15.5,0.7-25.5
		s-0.2-18.5-0.7-25.4c-0.5-6.9-1.5-12.6-2.9-17.1c-1.5-4.4-3.5-7.7-6.2-9.7c-2.7-2-6.3-3-10.7-3c-4.4,0-8,1-10.7,3
		c-2.7,2-4.8,5.2-6.2,9.7c-1.5,4.4-2.4,10.1-2.9,17.1c-0.5,6.9-0.7,15.4-0.7,25.4S180.7,95.8,181.1,102.8z"/>
	<path fill="#ECECEC" d="M312.7,112.9h0.6l22.1-110h31l-34.2,148.8h-38.5L259.6,2.9h32.1L312.7,112.9z"/>
	<path fill="#ECECEC" d="M379,2.9h30v148.8h-30V2.9z"/>
	<path fill="#ECECEC" d="M514.4,27.5h-53.1v35h50v24.6h-50v40h55.2v24.6h-85.2V2.9h83.1V27.5z"/>
	<path fill="#ECECEC" d="M639.8,2.9l39.4,148.8h-31.2l-6.9-31.5h-39.6l-6.9,31.5h-31.2L602.7,2.9H639.8z M635.8,95.6l-14.4-66.9H621
		l-14.4,66.9H635.8z"/>
	<path fill="#ECECEC" d="M713.7,109.6c0,3.5,0.3,6.6,0.8,9.5c0.6,2.8,1.6,5.2,3.1,7.2c1.5,1.9,3.6,3.5,6.1,4.6
		c2.6,1.1,5.8,1.7,9.7,1.7c4.6,0,8.7-1.5,12.4-4.5c3.7-3,5.5-7.6,5.5-13.9c0-3.3-0.5-6.2-1.4-8.6c-0.9-2.4-2.4-4.6-4.5-6.6
		c-2.1-1.9-4.8-3.7-8.2-5.3c-3.4-1.6-7.6-3.2-12.6-4.9c-6.7-2.2-12.4-4.7-17.3-7.3c-4.9-2.6-8.9-5.7-12.2-9.3
		c-3.3-3.5-5.7-7.6-7.2-12.3c-1.5-4.7-2.3-10-2.3-16.1c0-14.7,4.1-25.7,12.3-32.9C706.3,3.6,717.6,0,731.9,0
		c6.7,0,12.8,0.7,18.4,2.2c5.6,1.5,10.5,3.8,14.6,7.1c4.1,3.3,7.3,7.4,9.6,12.5c2.3,5.1,3.4,11.1,3.4,18.2v4.2h-28.8
		c0-7.1-1.2-12.5-3.8-16.4c-2.5-3.8-6.7-5.7-12.5-5.7c-3.3,0-6.1,0.5-8.3,1.5c-2.2,1-4,2.3-5.3,3.9c-1.3,1.6-2.2,3.4-2.7,5.5
		c-0.5,2.1-0.7,4.2-0.7,6.5c0,4.6,1,8.4,2.9,11.6c1.9,3.1,6.1,6,12.5,8.6l23.1,10c5.7,2.5,10.3,5.1,14,7.8c3.6,2.7,6.5,5.6,8.6,8.8
		c2.2,3.1,3.6,6.6,4.5,10.3c0.8,3.7,1.2,7.9,1.2,12.5c0,15.7-4.6,27.1-13.6,34.3c-9.1,7.2-21.8,10.7-38,10.7
		c-16.9,0-29.1-3.7-36.4-11c-7.3-7.4-10.9-17.9-10.9-31.7v-6h30V109.6z"/>
	<path fill="#ECECEC" d="M821.9,109.6c0,3.5,0.3,6.6,0.8,9.5c0.6,2.8,1.6,5.2,3.1,7.2c1.5,1.9,3.6,3.5,6.1,4.6
		c2.6,1.1,5.8,1.7,9.7,1.7c4.6,0,8.7-1.5,12.4-4.5c3.7-3,5.5-7.6,5.5-13.9c0-3.3-0.5-6.2-1.4-8.6c-0.9-2.4-2.4-4.6-4.5-6.6
		c-2.1-1.9-4.8-3.7-8.2-5.3c-3.4-1.6-7.6-3.2-12.6-4.9c-6.7-2.2-12.4-4.7-17.3-7.3c-4.9-2.6-8.9-5.7-12.2-9.3
		c-3.3-3.5-5.7-7.6-7.2-12.3c-1.5-4.7-2.3-10-2.3-16.1c0-14.7,4.1-25.7,12.3-32.9C814.4,3.6,825.7,0,840,0c6.7,0,12.8,0.7,18.4,2.2
		c5.6,1.5,10.5,3.8,14.6,7.1c4.1,3.3,7.3,7.4,9.6,12.5c2.3,5.1,3.4,11.1,3.4,18.2v4.2h-28.8c0-7.1-1.2-12.5-3.8-16.4
		c-2.5-3.8-6.7-5.7-12.5-5.7c-3.3,0-6.1,0.5-8.3,1.5c-2.2,1-4,2.3-5.3,3.9c-1.3,1.6-2.2,3.4-2.7,5.5c-0.5,2.1-0.7,4.2-0.7,6.5
		c0,4.6,1,8.4,2.9,11.6c1.9,3.1,6.1,6,12.5,8.6l23.1,10c5.7,2.5,10.3,5.1,14,7.8c3.6,2.7,6.5,5.6,8.6,8.8c2.2,3.1,3.6,6.6,4.5,10.3
		c0.8,3.7,1.2,7.9,1.2,12.5c0,15.7-4.6,27.1-13.6,34.3c-9.1,7.2-21.8,10.7-38,10.7c-16.9,0-29.1-3.7-36.4-11
		c-7.3-7.4-10.9-17.9-10.9-31.7v-6h30V109.6z"/>
	<path fill="#ECECEC" d="M907.3,2.9h30v148.8h-30V2.9z"/>
	<path fill="#ECECEC" d="M983.7,109.6c0,3.5,0.3,6.6,0.8,9.5c0.6,2.8,1.6,5.2,3.1,7.2c1.5,1.9,3.6,3.5,6.1,4.6
		c2.6,1.1,5.8,1.7,9.7,1.7c4.6,0,8.7-1.5,12.4-4.5c3.7-3,5.5-7.6,5.5-13.9c0-3.3-0.5-6.2-1.4-8.6c-0.9-2.4-2.4-4.6-4.5-6.6
		c-2.1-1.9-4.8-3.7-8.2-5.3c-3.4-1.6-7.6-3.2-12.6-4.9c-6.7-2.2-12.4-4.7-17.3-7.3c-4.9-2.6-8.9-5.7-12.2-9.3
		c-3.3-3.5-5.7-7.6-7.2-12.3c-1.5-4.7-2.3-10-2.3-16.1c0-14.7,4.1-25.7,12.3-32.9C976.3,3.6,987.6,0,1001.9,0
		c6.7,0,12.8,0.7,18.4,2.2c5.6,1.5,10.5,3.8,14.6,7.1c4.1,3.3,7.3,7.4,9.6,12.5c2.3,5.1,3.4,11.1,3.4,18.2v4.2h-28.8
		c0-7.1-1.2-12.5-3.8-16.4c-2.5-3.8-6.7-5.7-12.5-5.7c-3.3,0-6.1,0.5-8.3,1.5c-2.2,1-4,2.3-5.3,3.9c-1.3,1.6-2.2,3.4-2.7,5.5
		c-0.5,2.1-0.7,4.2-0.7,6.5c0,4.6,1,8.4,2.9,11.6c1.9,3.1,6.1,6,12.5,8.6l23.1,10c5.7,2.5,10.3,5.1,14,7.8c3.6,2.7,6.5,5.6,8.6,8.8
		c2.2,3.1,3.6,6.6,4.5,10.3c0.8,3.7,1.2,7.9,1.2,12.5c0,15.7-4.6,27.1-13.6,34.3c-9.1,7.2-21.8,10.7-38,10.7
		c-16.9,0-29.1-3.7-36.4-11c-7.3-7.4-10.9-17.9-10.9-31.7v-6h30V109.6z"/>
	<path fill="#ECECEC" d="M1154.8,27.5h-32.5v124.2h-30V27.5h-32.5V2.9h95V27.5z"/>
	<path fill="#ECECEC" d="M1222.3,2.9l39.4,148.8h-31.2l-6.9-31.5H1184l-6.9,31.5h-31.2l39.4-148.8H1222.3z M1218.3,95.6L1204,28.8
		h-0.4l-14.4,66.9H1218.3z"/>
	<path fill="#ECECEC" d="M1342.9,104.8h0.4V2.9h27.5v148.8h-34.2L1300,47.5h-0.4v104.2h-27.5V2.9h34.6L1342.9,104.8z"/>
	<path fill="#ECECEC" d="M1478.7,27.5h-32.5v124.2h-30V27.5h-32.5V2.9h95V27.5z"/>
</g>
</svg>
