<?xml version="1.0" encoding="utf-8"?>
<!-- Generator: Adobe Illustrator 19.2.1, SVG Export Plug-In . SVG Version: 6.00 Build 0)  -->
<svg version="1.1" id="Layer_1" xmlns="http://www.w3.org/2000/svg" xmlns:xlink="http://www.w3.org/1999/xlink" x="0px" y="0px"
	 viewBox="0 0 369 89.9" style="enable-background:new 0 0 369 89.9;" xml:space="preserve">
<style type="text/css">
	.st0{clip-path:url(#SVGID_2_);fill:#41D6C3;}
	.st1{fill:#41D6C3;}
</style>
<g>
	<g>
		<defs>
			<rect id="SVGID_1_" x="10.2" y="8.8" width="348.6" height="72.8"/>
		</defs>
		<clipPath id="SVGID_2_">
			<use xlink:href="#SVGID_1_"  style="overflow:visible;"/>
		</clipPath>
		<path class="st0" d="M358.1,33.7l0.6-0.2V8.8H10.2v24.8l0.6,0.3c4.5,2,7.4,6.4,7.4,11.3s-2.9,9.4-7.4,11.3l-0.6,0.3v24.8h348.6V57
			l-0.6-0.2c-4.7-1.8-7.9-6.5-7.9-11.5S353.4,35.5,358.1,33.7 M348.1,45.2c0,5.6,3.4,10.9,8.6,13.1v21.3H12.2V58.1
			c4.9-2.4,8-7.4,8-12.9s-3.1-10.5-8-12.9V10.8h344.5v21.3C351.6,34.4,348.1,39.6,348.1,45.2"/>
	</g>
	<g>
		<defs>
			<rect id="SVGID_3_" x="10.2" y="8.8" width="348.6" height="72.8"/>
		</defs>
		<clipPath id="SVGID_4_">
			<use xlink:href="#SVGID_3_"  style="overflow:visible;"/>
		</clipPath>
	</g>
	<g>
		<defs>
			<rect id="SVGID_5_" x="10.2" y="8.8" width="348.6" height="72.8"/>
		</defs>
		<clipPath id="SVGID_6_">
			<use xlink:href="#SVGID_5_"  style="overflow:visible;"/>
		</clipPath>
	</g>
	<g>
		<defs>
			<rect id="SVGID_7_" x="10.2" y="8.8" width="348.6" height="72.8"/>
		</defs>
		<clipPath id="SVGID_8_">
			<use xlink:href="#SVGID_7_"  style="overflow:visible;"/>
		</clipPath>
	</g>
	<g>
		<defs>
			<rect id="SVGID_9_" x="10.2" y="8.8" width="348.6" height="72.8"/>
		</defs>
		<clipPath id="SVGID_10_">
			<use xlink:href="#SVGID_9_"  style="overflow:visible;"/>
		</clipPath>
	</g>
	<g>
		<defs>
			<rect id="SVGID_11_" x="10.2" y="8.8" width="348.6" height="72.8"/>
		</defs>
		<clipPath id="SVGID_12_">
			<use xlink:href="#SVGID_11_"  style="overflow:visible;"/>
		</clipPath>
	</g>
	<g>
		<defs>
			<rect id="SVGID_13_" x="10.2" y="8.8" width="348.6" height="72.8"/>
		</defs>
		<clipPath id="SVGID_14_">
			<use xlink:href="#SVGID_13_"  style="overflow:visible;"/>
		</clipPath>
	</g>
	<g>
		<defs>
			<rect id="SVGID_15_" x="10.2" y="8.8" width="348.6" height="72.8"/>
		</defs>
		<clipPath id="SVGID_16_">
			<use xlink:href="#SVGID_15_"  style="overflow:visible;"/>
		</clipPath>
	</g>
	<g>
		<defs>
			<rect id="SVGID_17_" x="10.2" y="8.8" width="348.6" height="72.8"/>
		</defs>
		<clipPath id="SVGID_18_">
			<use xlink:href="#SVGID_17_"  style="overflow:visible;"/>
		</clipPath>
	</g>
	<g>
		<defs>
			<rect id="SVGID_19_" x="10.2" y="8.8" width="348.6" height="72.8"/>
		</defs>
		<clipPath id="SVGID_20_">
			<use xlink:href="#SVGID_19_"  style="overflow:visible;"/>
		</clipPath>
	</g>
	<g>
		<defs>
			<rect id="SVGID_21_" x="10.2" y="8.8" width="348.6" height="72.8"/>
		</defs>
		<clipPath id="SVGID_22_">
			<use xlink:href="#SVGID_21_"  style="overflow:visible;"/>
		</clipPath>
	</g>
	<g>
		<defs>
			<rect id="SVGID_23_" x="10.2" y="8.8" width="348.6" height="72.8"/>
		</defs>
		<clipPath id="SVGID_24_">
			<use xlink:href="#SVGID_23_"  style="overflow:visible;"/>
		</clipPath>
	</g>
	<g>
		<defs>
			<rect id="SVGID_25_" x="10.2" y="8.8" width="348.6" height="72.8"/>
		</defs>
		<clipPath id="SVGID_26_">
			<use xlink:href="#SVGID_25_"  style="overflow:visible;"/>
		</clipPath>
	</g>
	<g>
		<defs>
			<rect id="SVGID_27_" x="10.2" y="8.8" width="348.6" height="72.8"/>
		</defs>
		<clipPath id="SVGID_28_">
			<use xlink:href="#SVGID_27_"  style="overflow:visible;"/>
		</clipPath>
	</g>
	<g>
		<defs>
			<rect id="SVGID_29_" x="10.2" y="8.8" width="348.6" height="72.8"/>
		</defs>
		<clipPath id="SVGID_30_">
			<use xlink:href="#SVGID_29_"  style="overflow:visible;"/>
		</clipPath>
	</g>
	<g>
		<defs>
			<rect id="SVGID_31_" x="10.2" y="8.8" width="348.6" height="72.8"/>
		</defs>
		<clipPath id="SVGID_32_">
			<use xlink:href="#SVGID_31_"  style="overflow:visible;"/>
		</clipPath>
	</g>
</g>
<g>
	<path class="st1" d="M53.5,48.2V51c0,3.4-1.5,5.3-4.3,5.3c-2.8,0-4.3-1.9-4.3-5.3V40c0-3.4,1.5-5.3,4.3-5.3c2.8,0,4.3,1.9,4.3,5.3
		v2h-2.7v-2.2c0-1.5-0.6-2.1-1.5-2.1c-0.9,0-1.5,0.6-1.5,2.1v11.3c0,1.5,0.6,2,1.5,2c0.9,0,1.5-0.5,1.5-2v-3H53.5z"/>
	<path class="st1" d="M59.8,40c0-3.4,1.5-5.3,4.4-5.3c2.8,0,4.4,1.9,4.4,5.3V51c0,3.4-1.5,5.3-4.4,5.3c-2.8,0-4.4-1.9-4.4-5.3V40z
		 M62.6,51.2c0,1.5,0.6,2.1,1.5,2.1c0.9,0,1.5-0.6,1.5-2.1V39.8c0-1.5-0.6-2.1-1.5-2.1c-0.9,0-1.5,0.6-1.5,2.1V51.2z"/>
	<path class="st1" d="M77.6,40.8L77.6,40.8L77.6,56H75V35h3.6l2.9,12.6h0.1V35h2.6v21h-2.9L77.6,40.8z"/>
	<path class="st1" d="M95.2,52.1L95.2,52.1L97.4,35h2.6l-2.8,21h-4.3l-2.8-21H93L95.2,52.1z"/>
	<path class="st1" d="M108.9,43.9h3.9v3h-3.9V53h5v3h-7.8V35h7.8v3h-5V43.9z"/>
	<path class="st1" d="M126.4,56c-0.2-0.5-0.3-0.9-0.3-2.6v-3.3c0-2-0.6-2.7-1.9-2.7h-1V56h-2.9V35h4.3c3,0,4.3,1.6,4.3,4.8v1.6
		c0,2.2-0.6,3.5-1.9,4.2v0.1c1.4,0.7,1.9,2.2,1.9,4.4v3.2c0,1,0,1.8,0.3,2.5H126.4z M123.2,38v6.4h1.1c1.1,0,1.7-0.5,1.7-2.2v-2.1
		c0-1.5-0.4-2.2-1.5-2.2H123.2z"/>
	<path class="st1" d="M139.4,34.8c2.8,0,4.2,1.9,4.2,5.3v0.7h-2.7v-0.9c0-1.5-0.5-2.1-1.4-2.1s-1.4,0.6-1.4,2.1
		c0,1.5,0.6,2.7,2.5,4.6c2.4,2.4,3.2,4.2,3.2,6.6c0,3.4-1.5,5.3-4.3,5.3c-2.8,0-4.3-1.9-4.3-5.3v-1.3h2.7v1.5c0,1.5,0.6,2,1.5,2
		s1.5-0.5,1.5-2c0-1.5-0.6-2.7-2.5-4.6c-2.4-2.4-3.2-4.2-3.2-6.6C135.2,36.7,136.6,34.8,139.4,34.8z"/>
	<path class="st1" d="M159.3,56h-2.9l-0.5-3.8h-3.5l-0.5,3.8h-2.6l2.9-21h4.2L159.3,56z M152.7,49.3h2.8l-1.4-10.6h-0.1L152.7,49.3z
		"/>
	<path class="st1" d="M163.5,35h8.9v3h-3v18h-2.9V38h-3V35z"/>
	<path class="st1" d="M178.3,35h2.9v21h-2.9V35z"/>
	<path class="st1" d="M187.7,40c0-3.4,1.5-5.3,4.4-5.3c2.8,0,4.4,1.9,4.4,5.3V51c0,3.4-1.5,5.3-4.4,5.3c-2.8,0-4.4-1.9-4.4-5.3V40z
		 M190.6,51.2c0,1.5,0.6,2.1,1.5,2.1s1.5-0.6,1.5-2.1V39.8c0-1.5-0.6-2.1-1.5-2.1s-1.5,0.6-1.5,2.1V51.2z"/>
	<path class="st1" d="M205.6,40.8L205.6,40.8L205.6,56H203V35h3.6l2.9,12.6h0.1V35h2.6v21h-2.9L205.6,40.8z"/>
	<path class="st1" d="M228.1,56h-2.9l-0.5-3.8h-3.5l-0.5,3.8h-2.6l2.9-21h4.2L228.1,56z M221.6,49.3h2.8L223,38.7H223L221.6,49.3z"
		/>
	<path class="st1" d="M234.2,35h2.9v18h4.7v3h-7.6V35z"/>
	<path class="st1" d="M265.8,56h-2.9l-0.5-3.8h-3.5l-0.5,3.8h-2.6l2.9-21h4.2L265.8,56z M259.2,49.3h2.8l-1.4-10.6h-0.1L259.2,49.3z
		"/>
	<path class="st1" d="M276.1,44.3h4V51c0,3.4-1.5,5.3-4.3,5.3c-2.8,0-4.3-1.9-4.3-5.3V40c0-3.4,1.5-5.3,4.3-5.3
		c2.8,0,4.3,1.9,4.3,5.3v2h-2.7v-2.2c0-1.5-0.6-2.1-1.5-2.1s-1.5,0.6-1.5,2.1v11.3c0,1.5,0.6,2,1.5,2s1.5-0.5,1.5-2v-3.9h-1.3V44.3z
		"/>
	<path class="st1" d="M289.5,43.9h3.9v3h-3.9V53h5v3h-7.8V35h7.8v3h-5V43.9z"/>
	<path class="st1" d="M303.6,40.8L303.6,40.8L303.5,56h-2.6V35h3.6l2.9,12.6h0.1V35h2.6v21h-2.9L303.6,40.8z"/>
	<path class="st1" d="M316,35h8.9v3h-3v18H319V38h-3V35z"/>
</g>
</svg>
