<?xml version="1.0" encoding="utf-8"?>
<!-- Generator: Adobe Illustrator 19.2.1, SVG Export Plug-In . SVG Version: 6.00 Build 0)  -->
<svg version="1.1" id="Layer_1" xmlns="http://www.w3.org/2000/svg" xmlns:xlink="http://www.w3.org/1999/xlink" x="0px" y="0px"
	 viewBox="0 0 459 108.4" style="enable-background:new 0 0 459 108.4;" xml:space="preserve">
<style type="text/css">
	.st0{clip-path:url(#SVGID_2_);fill:#41D6C3;}
	.st1{fill:#41D6C3;}
</style>
<g>
	<defs>
		<rect id="SVGID_1_" x="10.3" y="9.1" width="438.3" height="87.6"/>
	</defs>
	<clipPath id="SVGID_2_">
		<use xlink:href="#SVGID_1_"  style="overflow:visible;"/>
	</clipPath>
	<path class="st0" d="M448,38.6l0.6-0.2V9.1H10.3v29.6l0.6,0.2c5.8,2.4,9.5,7.9,9.5,14s-3.7,11.6-9.5,14l-0.6,0.2v29.6h438.3V67.4
		l-0.6-0.2c-6.1-2.3-10.2-8-10.2-14.3S442,40.9,448,38.6 M435.9,52.9c0,6.8,4.3,13,10.8,15.7v26.3H12.3V68.3
		c6.2-2.8,10.1-8.8,10.1-15.4s-3.9-12.6-10.1-15.4V10.9h434.5v26.3C440.2,39.9,435.9,46.1,435.9,52.9"/>
</g>
<g>
	<defs>
		<rect id="SVGID_3_" x="10.3" y="9.1" width="438.3" height="87.6"/>
	</defs>
	<clipPath id="SVGID_4_">
		<use xlink:href="#SVGID_3_"  style="overflow:visible;"/>
	</clipPath>
</g>
<g>
	<defs>
		<rect id="SVGID_5_" x="10.3" y="9.1" width="438.3" height="87.6"/>
	</defs>
	<clipPath id="SVGID_6_">
		<use xlink:href="#SVGID_5_"  style="overflow:visible;"/>
	</clipPath>
</g>
<g>
	<path class="st1" d="M71.8,56.8v3.4c0,4.1-2.1,6.5-6.1,6.5c-4,0-6.1-2.4-6.1-6.5V46.8c0-4.1,2.1-6.5,6.1-6.5c4,0,6.1,2.4,6.1,6.5
		v2.5h-3.8v-2.8c0-1.9-0.8-2.6-2.1-2.6c-1.3,0-2.1,0.7-2.1,2.6v14c0,1.8,0.8,2.5,2.1,2.5c1.3,0,2.1-0.7,2.1-2.5v-3.7H71.8z"/>
	<path class="st1" d="M77.6,46.8c0-4.1,2.2-6.5,6.2-6.5c4,0,6.2,2.4,6.2,6.5v13.5c0,4.1-2.2,6.5-6.2,6.5c-4,0-6.2-2.4-6.2-6.5V46.8z
		 M81.6,60.5c0,1.8,0.8,2.6,2.1,2.6c1.3,0,2.1-0.7,2.1-2.6v-14c0-1.9-0.8-2.6-2.1-2.6c-1.3,0-2.1,0.7-2.1,2.6V60.5z"/>
	<path class="st1" d="M99.9,47.7L99.9,47.7l-0.1,18.8h-3.7V40.6h5.1l4.1,15.5h0.1V40.6h3.6v25.9h-4.2L99.9,47.7z"/>
	<path class="st1" d="M121.7,61.7L121.7,61.7l3.1-21.1h3.7l-4,25.9h-6.1l-4-25.9h4.1L121.7,61.7z"/>
	<path class="st1" d="M138.2,51.5h5.6v3.7h-5.6v7.6h7v3.7h-11.1V40.6h11.1v3.7h-7V51.5z"/>
	<path class="st1" d="M159.8,66.5c-0.2-0.7-0.4-1.1-0.4-3.2v-4.1c0-2.4-0.8-3.3-2.7-3.3h-1.4v10.5h-4.1V40.6h6.1c4.2,0,6,2,6,6v2
		c0,2.7-0.9,4.4-2.7,5.2v0.1c2,0.9,2.7,2.8,2.7,5.5v4c0,1.3,0,2.2,0.4,3.1H159.8z M155.4,44.3v8h1.6c1.5,0,2.4-0.7,2.4-2.7V47
		c0-1.9-0.6-2.7-2.1-2.7H155.4z"/>
	<path class="st1" d="M175.3,40.3c4,0,6,2.4,6,6.5v0.8h-3.8v-1.1c0-1.9-0.7-2.6-2-2.6c-1.3,0-2,0.7-2,2.6c0,1.9,0.8,3.3,3.5,5.6
		c3.4,3,4.5,5.1,4.5,8.1c0,4.1-2.1,6.5-6.1,6.5s-6.1-2.4-6.1-6.5v-1.6h3.8v1.9c0,1.8,0.8,2.5,2.1,2.5c1.3,0,2.1-0.7,2.1-2.5
		c0-1.9-0.8-3.3-3.5-5.6c-3.4-3-4.5-5.1-4.5-8.1C169.3,42.7,171.3,40.3,175.3,40.3z"/>
	<path class="st1" d="M200.5,66.5h-4.1l-0.7-4.7h-5l-0.7,4.7h-3.7l4.1-25.9h6L200.5,66.5z M191.2,58.3h3.9l-1.9-13.1h-0.1
		L191.2,58.3z"/>
	<path class="st1" d="M203.4,40.6H216v3.7h-4.3v22.2h-4.1V44.3h-4.3V40.6z"/>
	<path class="st1" d="M221.4,40.6h4.1v25.9h-4.1V40.6z"/>
	<path class="st1" d="M231.7,46.8c0-4.1,2.2-6.5,6.2-6.5c4,0,6.2,2.4,6.2,6.5v13.5c0,4.1-2.2,6.5-6.2,6.5c-4,0-6.2-2.4-6.2-6.5V46.8
		z M235.8,60.5c0,1.8,0.8,2.6,2.1,2.6c1.3,0,2.1-0.7,2.1-2.6v-14c0-1.9-0.8-2.6-2.1-2.6c-1.3,0-2.1,0.7-2.1,2.6V60.5z"/>
	<path class="st1" d="M254,47.7L254,47.7l-0.1,18.8h-3.7V40.6h5.1l4.1,15.5h0.1V40.6h3.6v25.9H259L254,47.7z"/>
	<path class="st1" d="M282.9,66.5h-4.1l-0.7-4.7h-5l-0.7,4.7h-3.7l4.1-25.9h6L282.9,66.5z M273.6,58.3h3.9l-1.9-13.1h-0.1
		L273.6,58.3z"/>
	<path class="st1" d="M288.4,40.6h4.1v22.2h6.7v3.7h-10.8V40.6z"/>
	<path class="st1" d="M327.1,66.5H323l-0.7-4.7h-5l-0.7,4.7h-3.7l4.1-25.9h6L327.1,66.5z M317.8,58.3h3.9l-1.9-13.1h-0.1L317.8,58.3
		z"/>
	<path class="st1" d="M338.7,52.1h5.7v8.2c0,4.1-2.1,6.5-6.1,6.5c-4,0-6.1-2.4-6.1-6.5V46.8c0-4.1,2.1-6.5,6.1-6.5
		c4,0,6.1,2.4,6.1,6.5v2.5h-3.8v-2.8c0-1.9-0.8-2.6-2.1-2.6c-1.3,0-2.1,0.7-2.1,2.6v14c0,1.8,0.8,2.5,2.1,2.5c1.3,0,2.1-0.7,2.1-2.5
		v-4.8h-1.8V52.1z"/>
	<path class="st1" d="M354.7,51.5h5.6v3.7h-5.6v7.6h7v3.7h-11.1V40.6h11.1v3.7h-7V51.5z"/>
	<path class="st1" d="M371.6,47.7L371.6,47.7l-0.1,18.8h-3.7V40.6h5.1l4.1,15.5h0.1V40.6h3.6v25.9h-4.2L371.6,47.7z"/>
	<path class="st1" d="M386.1,40.6h12.6v3.7h-4.3v22.2h-4.1V44.3h-4.3V40.6z"/>
</g>
</svg>
